<svg width="32" height="32" viewBox="0 0 32 32" fill="none" xmlns="http://www.w3.org/2000/svg">
  <!-- 背景の円 -->
  <circle cx="16" cy="16" r="16" fill="#dc2626"/>
  
  <!-- 電車の本体（緑色） -->
  <rect x="4" y="10" width="24" height="12" rx="2" fill="#4CAF50"/>
  
  <!-- 電車の窓とドア（水色） -->
  <rect x="6" y="12" width="4" height="6" fill="#81D4FA"/>
  <rect x="12" y="12" width="3" height="6" fill="#81D4FA"/>
  <rect x="17" y="12" width="3" height="6" fill="#81D4FA"/>
  <rect x="22" y="12" width="4" height="6" fill="#81D4FA"/>
  
  <!-- 電車の屋根（濃い緑） -->
  <rect x="4" y="10" width="24" height="1" fill="#388E3C"/>
  
  <!-- 電車の下部分（濃い緑） -->
  <rect x="6" y="22" width="20" height="2" fill="#388E3C"/>
  
  <!-- 車輪（濃い緑） -->
  <circle cx="10" cy="24" r="1" fill="#2E7D32"/>
  <circle cx="22" cy="24" r="1" fill="#2E7D32"/>
  
  <!-- レール（濃い緑） -->
  <rect x="3" y="26" width="26" height="1" fill="#2E7D32"/>
  
  <!-- Wi-Fi信号（明るい緑） -->
  <path d="M24 4 Q26 2 28 4 Q30 6 28 8 Q26 10 24 8 Q22 6 24 4" stroke="#4CAF50" stroke-width="1.5" fill="none"/>
  <path d="M26 2 Q28 0 30 2 Q32 4 30 6 Q28 8 26 6 Q24 4 26 2" stroke="#4CAF50" stroke-width="1.5" fill="none"/>
  <path d="M28 0 Q30 -2 32 0 Q34 2 32 4 Q30 6 28 4 Q26 2 28 0" stroke="#4CAF50" stroke-width="1.5" fill="none"/>
</svg> 